<svg width="72" height="111" viewBox="0 0 72 111" fill="none" xmlns="http://www.w3.org/2000/svg">
<path d="M25.2 25.586C26.852 26.174 28.112 27.056 28.98 28.232C29.848 29.38 30.282 30.794 30.282 32.474C30.282 35.106 29.232 37.192 27.132 38.732C25.06 40.244 22.12 41 18.312 41H2.604V11.6H17.514C21.154 11.6 23.968 12.272 25.956 13.616C27.972 14.96 28.98 16.85 28.98 19.286C28.98 20.686 28.644 21.918 27.972 22.982C27.328 24.046 26.404 24.914 25.2 25.586ZM12.348 22.898H16.548C18.172 22.898 18.984 22.184 18.984 20.756C18.984 19.272 18.172 18.53 16.548 18.53H12.348V22.898ZM17.85 34.07C19.474 34.07 20.286 33.286 20.286 31.718C20.286 30.206 19.474 29.45 17.85 29.45H12.348V34.07H17.85ZM60.0669 41L59.9829 27.602L53.5989 38.354H49.2309L42.8469 28.064V41H33.8169V11.6H41.9649L51.5409 27.266L60.8649 11.6H69.0129L69.0969 41H60.0669Z" fill="black"/>
<circle cx="35.5" cy="66.5" r="21.5" fill="#016782"/>
<path d="M36 111L48.9904 80.25H23.0096L36 111Z" fill="#016782"/>
<circle cx="35.5" cy="66.5" r="13.5" fill="white"/>
<ellipse cx="35.5" cy="66" rx="5.5" ry="5" fill="#FF8768"/>
</svg>
