<svg width="16" height="16" viewBox="0 0 16 16" fill="none" xmlns="http://www.w3.org/2000/svg">
<path d="M15.5698 13.3047L13.3437 15.5424C13.0151 15.8839 12.5795 15.9996 12.1553 16.0001C10.2794 15.9432 8.50621 15.0094 7.05031 14.0506C4.66055 12.2889 2.46784 10.1044 1.09165 7.46458C0.563837 6.3576 -0.0554786 4.94519 0.00369244 3.7096C0.00896875 3.2448 0.132574 2.78863 0.455613 2.48903L2.68175 0.234351C3.14401 -0.164089 3.59105 -0.0263293 3.88686 0.437777L5.6778 3.87914C5.8663 4.28683 5.75817 4.72366 5.47693 5.01498L4.65677 5.84564C4.60614 5.91592 4.5739 5.99592 4.57309 6.08299C4.88759 7.31662 5.84036 8.45364 6.68205 9.23614C7.52372 10.0186 8.42843 11.0788 9.6028 11.3297C9.74796 11.3708 9.92576 11.3852 10.0296 11.2874L10.9837 10.3041C11.3126 10.0515 11.7875 9.92806 12.1386 10.1346H12.1553L15.3857 12.0672C15.8599 12.3684 15.9094 12.9505 15.5698 13.3047Z" fill="white"/>
</svg>
