<svg width="15" height="11" viewBox="0 0 15 11" fill="none" xmlns="http://www.w3.org/2000/svg">
<path d="M13.5938 0.34375H1.40625C1.14697 0.34375 0.9375 0.553223 0.9375 0.8125V10.1875C0.9375 10.4468 1.14697 10.6562 1.40625 10.6562H13.5938C13.853 10.6562 14.0625 10.4468 14.0625 10.1875V0.8125C14.0625 0.553223 13.853 0.34375 13.5938 0.34375ZM13.0078 1.9668V9.60156H1.99219V1.9668L1.58789 1.65186L2.16357 0.912109L2.79053 1.3999H12.2109L12.8379 0.912109L13.4136 1.65186L13.0078 1.9668ZM12.2109 1.39844L7.5 5.06055L2.78906 1.39844L2.16211 0.910644L1.58643 1.65039L1.99072 1.96533L6.99463 5.85596C7.13853 5.96775 7.31557 6.02844 7.4978 6.02844C7.68003 6.02844 7.85707 5.96775 8.00098 5.85596L13.0078 1.9668L13.4121 1.65186L12.8364 0.912109L12.2109 1.39844Z" fill="#FF8768"/>
</svg>
