<svg width="14" height="14" viewBox="0 0 14 14" fill="none" xmlns="http://www.w3.org/2000/svg">
<path d="M6.99992 0.333344C3.32392 0.333344 0.333252 3.32401 0.333252 7.00001C0.333252 10.676 3.32392 13.6667 6.99992 13.6667C10.6759 13.6667 13.6666 10.676 13.6666 7.00001C13.6666 3.32401 10.6759 0.333344 6.99992 0.333344ZM6.99992 12.3333C4.05925 12.3333 1.66659 9.94068 1.66659 7.00001C1.66659 4.05934 4.05925 1.66668 6.99992 1.66668C9.94059 1.66668 12.3333 4.05934 12.3333 7.00001C12.3333 9.94068 9.94059 12.3333 6.99992 12.3333Z" fill="white"/>
<path d="M7.66658 3.66666H6.33325V7.27599L8.52858 9.47132L9.47125 8.52866L7.66658 6.72399V3.66666Z" fill="white"/>
</svg>
