<svg width="30" height="17" viewBox="0 0 30 17" fill="none" xmlns="http://www.w3.org/2000/svg">
<path d="M28.5703 1.36398C28.7686 0.718149 28.5703 0.244537 27.6325 0.244537H24.5257C23.7352 0.244537 23.374 0.65426 23.1756 1.10426C23.1756 1.10426 21.596 4.88065 19.3577 7.32926C18.6352 8.04176 18.3051 8.26676 17.9113 8.26676C17.7144 8.26676 17.4282 8.04176 17.4282 7.39593V1.36398C17.4282 0.588982 17.2001 0.244537 16.5414 0.244537H11.6595C11.1665 0.244537 10.869 0.602871 10.869 0.944538C10.869 1.67787 11.9882 1.84732 12.103 3.91398V8.39732C12.103 9.37926 11.923 9.55843 11.5264 9.55843C10.4738 9.55843 7.91246 5.76815 6.39237 1.42926C6.09629 0.586204 5.79737 0.245927 5.00404 0.245927H1.89871C1.01046 0.245927 0.833374 0.655649 0.833374 1.10565C0.833374 1.91398 1.88596 5.91398 5.73646 11.2043C8.30346 14.8168 11.9174 16.7751 15.2097 16.7751C17.1831 16.7751 17.4268 16.3404 17.4268 15.5904V12.8598C17.4268 11.9904 17.6152 11.8154 18.24 11.8154C18.699 11.8154 19.4895 12.0431 21.3325 13.7834C23.4377 15.8473 23.7862 16.7737 24.9691 16.7737H28.0745C28.9613 16.7737 29.4047 16.339 29.1497 15.4806C28.8706 14.6265 27.8648 13.3834 26.5303 11.9126C25.805 11.0737 24.7212 10.1709 24.3911 9.71954C23.9307 9.13759 24.0639 8.88065 24.3911 8.36398C24.3925 8.36537 28.1765 3.14037 28.5703 1.36398Z" fill="white"/>
</svg>
