<svg width="22" height="21" viewBox="0 0 22 21" fill="none" xmlns="http://www.w3.org/2000/svg">
<g filter="url(#filter0_d)">
<path d="M15.3292 11.8885C15.095 11.7682 13.9284 11.1967 13.7114 11.1193C13.4944 11.0377 13.3354 10.999 13.1786 11.2396C13.0196 11.4781 12.5684 12.0088 12.4266 12.1699C12.2891 12.3289 12.1495 12.3482 11.9153 12.2301C10.5231 11.534 9.61001 10.9883 8.69263 9.41348C8.44985 8.99453 8.9354 9.02461 9.38872 8.12012C9.46606 7.96113 9.42739 7.82578 9.36724 7.70547C9.30708 7.58516 8.83442 6.4207 8.63677 5.9459C8.44556 5.48398 8.2479 5.54844 8.10396 5.53984C7.96646 5.53125 7.80962 5.53125 7.65063 5.53125C7.49165 5.53125 7.23599 5.59141 7.01899 5.82559C6.802 6.06406 6.1897 6.6377 6.1897 7.80215C6.1897 8.9666 7.03833 10.0945 7.15435 10.2535C7.27466 10.4125 8.82368 12.8016 11.202 13.8307C12.7059 14.4795 13.2946 14.5354 14.0465 14.4236C14.5042 14.3549 15.4473 13.8521 15.6428 13.2957C15.8383 12.7414 15.8383 12.2666 15.7803 12.1678C15.7223 12.0625 15.5633 12.0023 15.3292 11.8885Z" fill="white"/>
<path d="M19.8773 6.27031C19.3918 5.1166 18.6957 4.08105 17.8084 3.1916C16.9211 2.3043 15.8855 1.60605 14.7297 1.12266C13.548 0.626367 12.2934 0.375 11 0.375H10.957C9.65508 0.381445 8.39395 0.639258 7.20801 1.14629C6.06289 1.63613 5.03594 2.33223 4.15723 3.21953C3.27852 4.10684 2.58887 5.13809 2.11191 6.2875C1.61777 7.47773 1.36855 8.74316 1.375 10.0451C1.38145 11.5361 1.73809 13.0164 2.40625 14.3398V17.6055C2.40625 18.1512 2.84883 18.5938 3.39453 18.5938H6.66231C7.98574 19.2619 9.46602 19.6186 10.957 19.625H11.0021C12.2891 19.625 13.5373 19.3758 14.7125 18.8881C15.8619 18.409 16.8953 17.7215 17.7805 16.8428C18.6678 15.9641 19.366 14.9371 19.8537 13.792C20.3607 12.6061 20.6186 11.3449 20.625 10.043C20.6314 8.73457 20.3779 7.46484 19.8773 6.27031ZM16.6311 15.6805C15.125 17.1715 13.127 17.9922 11 17.9922H10.9635C9.66797 17.9857 8.38106 17.6635 7.24453 17.0576L7.06406 16.9609H4.03906V13.9359L3.94238 13.7555C3.33652 12.6189 3.01426 11.332 3.00781 10.0365C2.99922 7.89453 3.81777 5.88359 5.31953 4.36895C6.81914 2.8543 8.82363 2.01641 10.9656 2.00781H11.0021C12.0764 2.00781 13.1184 2.21621 14.1002 2.62871C15.0584 3.03047 15.9178 3.6084 16.6568 4.34746C17.3938 5.08437 17.9738 5.9459 18.3756 6.9041C18.7924 7.89668 19.0008 8.94941 18.9965 10.0365C18.9836 12.1764 18.1436 14.1809 16.6311 15.6805Z" fill="white"/>
</g>
<defs>
<filter id="filter0_d" x="-2.62512" y="0.375" width="27.2502" height="27.25" filterUnits="userSpaceOnUse" color-interpolation-filters="sRGB">
<feFlood flood-opacity="0" result="BackgroundImageFix"/>
<feColorMatrix in="SourceAlpha" type="matrix" values="0 0 0 0 0 0 0 0 0 0 0 0 0 0 0 0 0 0 127 0"/>
<feOffset dy="4"/>
<feGaussianBlur stdDeviation="2"/>
<feColorMatrix type="matrix" values="0 0 0 0 0 0 0 0 0 0 0 0 0 0 0 0 0 0 0.25 0"/>
<feBlend mode="normal" in2="BackgroundImageFix" result="effect1_dropShadow"/>
<feBlend mode="normal" in="SourceGraphic" in2="effect1_dropShadow" result="shape"/>
</filter>
</defs>
</svg>
