<svg width="68" height="30" viewBox="0 0 68 30" fill="none" xmlns="http://www.w3.org/2000/svg">
<path d="M23.2 14.586C24.852 15.174 26.112 16.056 26.98 17.232C27.848 18.38 28.282 19.794 28.282 21.474C28.282 24.106 27.232 26.192 25.132 27.732C23.06 29.244 20.12 30 16.312 30H0.604V0.599998H15.514C19.154 0.599998 21.968 1.272 23.956 2.616C25.972 3.96 26.98 5.85 26.98 8.286C26.98 9.686 26.644 10.918 25.972 11.982C25.328 13.046 24.404 13.914 23.2 14.586ZM10.348 11.898H14.548C16.172 11.898 16.984 11.184 16.984 9.756C16.984 8.272 16.172 7.53 14.548 7.53H10.348V11.898ZM15.85 23.07C17.474 23.07 18.286 22.286 18.286 20.718C18.286 19.206 17.474 18.45 15.85 18.45H10.348V23.07H15.85ZM58.0669 30L57.9829 16.602L51.5989 27.354H47.2309L40.8469 17.064V30H31.8169V0.599998H39.9649L49.5409 16.266L58.8649 0.599998H67.0129L67.0969 30H58.0669Z" fill="white"/>
</svg>
